<svg id="logo" xmlns="http://www.w3.org/2000/svg" viewBox="0 0 368.4 99.61"><defs><style>.cls-1{fill:#383838;}.cls-2{fill:#1a1a1a;}.cls-3{fill:#3d3d3d;}.cls-4{font-size:36px;font-family:AgencyFB-Reg, Agency FB;letter-spacing:0.1em;}</style></defs><title>collins_logo</title><g id="letter_c"><path id="letter_c-2" data-name="letter_c" class="cls-1" d="M67.7,15.19s-11-13-22-14a29,29,0,0,0-20.5,1.5s-15,7-20,19c0,0-11,21-1,41,0,0,7,21,28,24,0,0,14,2,23-4,0,0,7-4,9-7l3-4s-7,8-16,5c0,0-8-2-14-13,0,0-7-13-4-28,0,0,0-5,7-17,0,0,5-7,11-8A16.85,16.85,0,0,1,67.7,15.19Z"/><path id="upper_dent" class="cls-1" d="M42.2,20.69s5-8,11-8c0,0,9-1,13,6,0,0,6,4,3,9a4.33,4.33,0,0,1-4,2s-11,1-15-1C50.2,28.69,41.2,24.69,42.2,20.69Z"/><path id="lower_dent" class="cls-1" d="M42.2,65.69s-1-4,8-8c0,0,15-4,19,2,0,0,2,4-1,7,0,0-6,7-8,7,0,0-7,2-9,0C51.2,73.69,43.2,70.69,42.2,65.69Z"/></g><g id="letter_i"><polygon id="top" class="cls-2" points="96.37 29.28 96.37 38.75 98.2 38.75 98.2 26.69 83.56 26.69 83.56 38.75 85.39 38.75 85.39 29.28 96.37 29.28"/><polygon id="bottom" class="cls-2" points="83.56 82.69 98.2 82.69 98.2 47.37 95.62 47.37 95.62 80.11 86.14 80.11 86.14 47.37 83.56 47.37 83.56 82.69"/><rect id="inner_fill" class="cls-3" x="85.61" y="47.69" width="10.11" height="32.67"/></g><text class="cls-4" transform="translate(116.4 83.19)">COLLINS ILO</text></svg>